<mxfile host="app.diagrams.net" modified="2023-12-14T06:59:58.842Z" agent="Mozilla/5.0 (Windows NT 10.0; Win64; x64) AppleWebKit/537.36 (KHTML, like Gecko) Chrome/119.0.0.0 Safari/537.36" etag="thVJ71ROUSky2lA0bweZ" version="22.1.8" type="github">
  <diagram name="Page-1" id="d0QBPmn3JqpIGUC00Diu">
    <mxGraphModel dx="1687" dy="2572" grid="1" gridSize="10" guides="1" tooltips="1" connect="1" arrows="1" fold="1" page="1" pageScale="1" pageWidth="1169" pageHeight="1654" math="0" shadow="0">
      <root>
        <mxCell id="0" />
        <mxCell id="1" parent="0" />
        <mxCell id="wB-Hq6-462Kky3SHtKy7-2" value="AWS Cloud" style="points=[[0,0],[0.25,0],[0.5,0],[0.75,0],[1,0],[1,0.25],[1,0.5],[1,0.75],[1,1],[0.75,1],[0.5,1],[0.25,1],[0,1],[0,0.75],[0,0.5],[0,0.25]];outlineConnect=0;gradientColor=none;html=1;whiteSpace=wrap;fontSize=12;fontStyle=0;container=1;pointerEvents=0;collapsible=0;recursiveResize=0;shape=mxgraph.aws4.group;grIcon=mxgraph.aws4.group_aws_cloud_alt;strokeColor=#232F3E;fillColor=none;verticalAlign=top;align=left;spacingLeft=30;fontColor=#232F3E;dashed=0;" parent="1" vertex="1">
          <mxGeometry x="200" y="-600" width="880" height="880" as="geometry" />
        </mxCell>
        <mxCell id="qJTPOWWO7ZOpzd0XANFb-11" style="edgeStyle=orthogonalEdgeStyle;rounded=0;orthogonalLoop=1;jettySize=auto;html=1;exitX=1;exitY=0.25;exitDx=0;exitDy=0;exitPerimeter=0;strokeWidth=2;strokeColor=#3333FF;" edge="1" parent="wB-Hq6-462Kky3SHtKy7-2" target="qJTPOWWO7ZOpzd0XANFb-4">
          <mxGeometry relative="1" as="geometry">
            <mxPoint x="210" y="370.5" as="sourcePoint" />
            <Array as="points">
              <mxPoint x="242" y="371" />
              <mxPoint x="242" y="270" />
            </Array>
          </mxGeometry>
        </mxCell>
        <mxCell id="qJTPOWWO7ZOpzd0XANFb-12" style="edgeStyle=orthogonalEdgeStyle;rounded=0;orthogonalLoop=1;jettySize=auto;html=1;exitX=1;exitY=0.75;exitDx=0;exitDy=0;exitPerimeter=0;strokeWidth=2;strokeColor=#3333FF;" edge="1" parent="wB-Hq6-462Kky3SHtKy7-2" target="qJTPOWWO7ZOpzd0XANFb-6">
          <mxGeometry relative="1" as="geometry">
            <mxPoint x="210" y="409.5" as="sourcePoint" />
            <Array as="points">
              <mxPoint x="242" y="410" />
              <mxPoint x="242" y="570" />
            </Array>
          </mxGeometry>
        </mxCell>
        <mxCell id="wB-Hq6-462Kky3SHtKy7-10" value="" style="sketch=0;points=[[0,0,0],[0.25,0,0],[0.5,0,0],[0.75,0,0],[1,0,0],[0,1,0],[0.25,1,0],[0.5,1,0],[0.75,1,0],[1,1,0],[0,0.25,0],[0,0.5,0],[0,0.75,0],[1,0.25,0],[1,0.5,0],[1,0.75,0]];outlineConnect=0;fontColor=#232F3E;fillColor=#8C4FFF;strokeColor=#ffffff;dashed=0;verticalLabelPosition=bottom;verticalAlign=top;align=center;html=1;fontSize=12;fontStyle=0;aspect=fixed;shape=mxgraph.aws4.resourceIcon;resIcon=mxgraph.aws4.elastic_load_balancing;" parent="wB-Hq6-462Kky3SHtKy7-2" vertex="1">
          <mxGeometry x="130" y="351" width="78" height="78" as="geometry" />
        </mxCell>
        <mxCell id="wB-Hq6-462Kky3SHtKy7-12" value="&lt;b&gt;&lt;font color=&quot;#000099&quot; style=&quot;font-size: 13px;&quot;&gt;Availability zone 2&lt;/font&gt;&lt;/b&gt;" style="sketch=0;outlineConnect=0;gradientColor=none;html=1;whiteSpace=wrap;fontSize=12;fontStyle=0;shape=mxgraph.aws4.group;grIcon=mxgraph.aws4.group_availability_zone;strokeColor=#545B64;fillColor=none;verticalAlign=top;align=left;spacingLeft=30;fontColor=#545B64;dashed=1;" parent="wB-Hq6-462Kky3SHtKy7-2" vertex="1">
          <mxGeometry x="252" y="390" width="600" height="380" as="geometry" />
        </mxCell>
        <mxCell id="wB-Hq6-462Kky3SHtKy7-13" value="&lt;b&gt;&lt;font color=&quot;#000099&quot; style=&quot;font-size: 13px;&quot;&gt;Availability zone 1&lt;/font&gt;&lt;/b&gt;" style="sketch=0;outlineConnect=0;gradientColor=none;html=1;whiteSpace=wrap;fontSize=12;fontStyle=0;shape=mxgraph.aws4.group;grIcon=mxgraph.aws4.group_availability_zone;strokeColor=#545B64;fillColor=none;verticalAlign=top;align=left;spacingLeft=30;fontColor=#545B64;dashed=1;" parent="wB-Hq6-462Kky3SHtKy7-2" vertex="1">
          <mxGeometry x="252" y="50" width="600" height="320" as="geometry" />
        </mxCell>
        <mxCell id="qJTPOWWO7ZOpzd0XANFb-1" value="" style="rounded=1;arcSize=10;dashed=1;strokeColor=#F59D56;fillColor=none;gradientColor=none;dashPattern=8 4;strokeWidth=2;" vertex="1" parent="wB-Hq6-462Kky3SHtKy7-2">
          <mxGeometry x="282" y="190" width="199.5" height="490" as="geometry" />
        </mxCell>
        <mxCell id="qJTPOWWO7ZOpzd0XANFb-2" value="" style="sketch=0;points=[[0,0,0],[0.25,0,0],[0.5,0,0],[0.75,0,0],[1,0,0],[0,1,0],[0.25,1,0],[0.5,1,0],[0.75,1,0],[1,1,0],[0,0.25,0],[0,0.5,0],[0,0.75,0],[1,0.25,0],[1,0.5,0],[1,0.75,0]];outlineConnect=0;fontColor=#232F3E;fillColor=#ED7100;strokeColor=#ffffff;dashed=0;verticalLabelPosition=bottom;verticalAlign=top;align=center;html=1;fontSize=12;fontStyle=0;aspect=fixed;shape=mxgraph.aws4.resourceIcon;resIcon=mxgraph.aws4.auto_scaling2;" vertex="1" parent="wB-Hq6-462Kky3SHtKy7-2">
          <mxGeometry x="342.69" y="101" width="68" height="68" as="geometry" />
        </mxCell>
        <mxCell id="qJTPOWWO7ZOpzd0XANFb-18" style="edgeStyle=orthogonalEdgeStyle;rounded=0;orthogonalLoop=1;jettySize=auto;html=1;startArrow=classic;startFill=1;strokeWidth=2;strokeColor=#3333FF;" edge="1" parent="wB-Hq6-462Kky3SHtKy7-2" source="qJTPOWWO7ZOpzd0XANFb-4" target="qJTPOWWO7ZOpzd0XANFb-9">
          <mxGeometry relative="1" as="geometry" />
        </mxCell>
        <mxCell id="qJTPOWWO7ZOpzd0XANFb-4" value="" style="sketch=0;outlineConnect=0;fontColor=#232F3E;gradientColor=none;fillColor=#ED7100;strokeColor=none;dashed=0;verticalLabelPosition=bottom;verticalAlign=top;align=center;html=1;fontSize=12;fontStyle=0;aspect=fixed;pointerEvents=1;shape=mxgraph.aws4.instance2;" vertex="1" parent="wB-Hq6-462Kky3SHtKy7-2">
          <mxGeometry x="341.69" y="221" width="80" height="80" as="geometry" />
        </mxCell>
        <mxCell id="qJTPOWWO7ZOpzd0XANFb-19" style="edgeStyle=orthogonalEdgeStyle;rounded=0;orthogonalLoop=1;jettySize=auto;html=1;startArrow=classic;startFill=1;strokeColor=#3333FF;strokeWidth=2;" edge="1" parent="wB-Hq6-462Kky3SHtKy7-2" source="qJTPOWWO7ZOpzd0XANFb-6" target="qJTPOWWO7ZOpzd0XANFb-10">
          <mxGeometry relative="1" as="geometry" />
        </mxCell>
        <mxCell id="qJTPOWWO7ZOpzd0XANFb-6" value="" style="sketch=0;outlineConnect=0;fontColor=#232F3E;gradientColor=none;fillColor=#ED7100;strokeColor=none;dashed=0;verticalLabelPosition=bottom;verticalAlign=top;align=center;html=1;fontSize=12;fontStyle=0;aspect=fixed;pointerEvents=1;shape=mxgraph.aws4.instance2;" vertex="1" parent="wB-Hq6-462Kky3SHtKy7-2">
          <mxGeometry x="341.68" y="550" width="80" height="80" as="geometry" />
        </mxCell>
        <mxCell id="qJTPOWWO7ZOpzd0XANFb-7" value="" style="rounded=1;arcSize=10;dashed=1;strokeColor=#F59D56;fillColor=none;gradientColor=none;dashPattern=8 4;strokeWidth=2;" vertex="1" parent="wB-Hq6-462Kky3SHtKy7-2">
          <mxGeometry x="622" y="190" width="199.5" height="490" as="geometry" />
        </mxCell>
        <mxCell id="qJTPOWWO7ZOpzd0XANFb-8" value="" style="sketch=0;points=[[0,0,0],[0.25,0,0],[0.5,0,0],[0.75,0,0],[1,0,0],[0,1,0],[0.25,1,0],[0.5,1,0],[0.75,1,0],[1,1,0],[0,0.25,0],[0,0.5,0],[0,0.75,0],[1,0.25,0],[1,0.5,0],[1,0.75,0]];outlineConnect=0;fontColor=#232F3E;fillColor=#ED7100;strokeColor=#ffffff;dashed=0;verticalLabelPosition=bottom;verticalAlign=top;align=center;html=1;fontSize=12;fontStyle=0;aspect=fixed;shape=mxgraph.aws4.resourceIcon;resIcon=mxgraph.aws4.auto_scaling2;" vertex="1" parent="wB-Hq6-462Kky3SHtKy7-2">
          <mxGeometry x="682.69" y="101" width="68" height="68" as="geometry" />
        </mxCell>
        <mxCell id="qJTPOWWO7ZOpzd0XANFb-9" value="" style="sketch=0;outlineConnect=0;fontColor=#232F3E;gradientColor=none;fillColor=#ED7100;strokeColor=none;dashed=0;verticalLabelPosition=bottom;verticalAlign=top;align=center;html=1;fontSize=12;fontStyle=0;aspect=fixed;pointerEvents=1;shape=mxgraph.aws4.instance2;" vertex="1" parent="wB-Hq6-462Kky3SHtKy7-2">
          <mxGeometry x="681.69" y="221" width="80" height="80" as="geometry" />
        </mxCell>
        <mxCell id="qJTPOWWO7ZOpzd0XANFb-10" value="" style="sketch=0;outlineConnect=0;fontColor=#232F3E;gradientColor=none;fillColor=#ED7100;strokeColor=none;dashed=0;verticalLabelPosition=bottom;verticalAlign=top;align=center;html=1;fontSize=12;fontStyle=0;aspect=fixed;pointerEvents=1;shape=mxgraph.aws4.instance2;" vertex="1" parent="wB-Hq6-462Kky3SHtKy7-2">
          <mxGeometry x="681.7499999999999" y="550" width="80" height="80" as="geometry" />
        </mxCell>
        <mxCell id="qJTPOWWO7ZOpzd0XANFb-14" value="Web Server" style="rounded=1;whiteSpace=wrap;html=1;" vertex="1" parent="wB-Hq6-462Kky3SHtKy7-2">
          <mxGeometry x="322.69" y="311" width="119.25" height="40" as="geometry" />
        </mxCell>
        <mxCell id="qJTPOWWO7ZOpzd0XANFb-15" value="Web Server" style="rounded=1;whiteSpace=wrap;html=1;" vertex="1" parent="wB-Hq6-462Kky3SHtKy7-2">
          <mxGeometry x="322.05" y="691" width="119.25" height="40" as="geometry" />
        </mxCell>
        <mxCell id="qJTPOWWO7ZOpzd0XANFb-16" value="Game Server" style="rounded=1;whiteSpace=wrap;html=1;" vertex="1" parent="wB-Hq6-462Kky3SHtKy7-2">
          <mxGeometry x="662.0600000000001" y="311" width="119.25" height="40" as="geometry" />
        </mxCell>
        <mxCell id="qJTPOWWO7ZOpzd0XANFb-17" value="Game Server" style="rounded=1;whiteSpace=wrap;html=1;" vertex="1" parent="wB-Hq6-462Kky3SHtKy7-2">
          <mxGeometry x="662.06" y="691" width="119.25" height="40" as="geometry" />
        </mxCell>
        <mxCell id="qJTPOWWO7ZOpzd0XANFb-24" style="edgeStyle=orthogonalEdgeStyle;rounded=0;orthogonalLoop=1;jettySize=auto;html=1;strokeColor=#3333FF;strokeWidth=2;" edge="1" parent="wB-Hq6-462Kky3SHtKy7-2" source="qJTPOWWO7ZOpzd0XANFb-29" target="qJTPOWWO7ZOpzd0XANFb-4">
          <mxGeometry relative="1" as="geometry">
            <mxPoint x="552" y="200" as="sourcePoint" />
            <Array as="points">
              <mxPoint x="552" y="240" />
            </Array>
          </mxGeometry>
        </mxCell>
        <mxCell id="qJTPOWWO7ZOpzd0XANFb-23" value="" style="sketch=0;points=[[0,0,0],[0.25,0,0],[0.5,0,0],[0.75,0,0],[1,0,0],[0,1,0],[0.25,1,0],[0.5,1,0],[0.75,1,0],[1,1,0],[0,0.25,0],[0,0.5,0],[0,0.75,0],[1,0.25,0],[1,0.5,0],[1,0.75,0]];outlineConnect=0;fontColor=#232F3E;fillColor=#C925D1;strokeColor=#ffffff;dashed=0;verticalLabelPosition=bottom;verticalAlign=top;align=center;html=1;fontSize=12;fontStyle=0;aspect=fixed;shape=mxgraph.aws4.resourceIcon;resIcon=mxgraph.aws4.dynamodb;" vertex="1" parent="wB-Hq6-462Kky3SHtKy7-2">
          <mxGeometry x="513" y="60" width="78" height="78" as="geometry" />
        </mxCell>
        <mxCell id="qJTPOWWO7ZOpzd0XANFb-29" value="" style="sketch=0;outlineConnect=0;fontColor=#232F3E;gradientColor=none;fillColor=#C925D1;strokeColor=none;dashed=0;verticalLabelPosition=bottom;verticalAlign=top;align=center;html=1;fontSize=12;fontStyle=0;aspect=fixed;pointerEvents=1;shape=mxgraph.aws4.dynamodb_dax;" vertex="1" parent="wB-Hq6-462Kky3SHtKy7-2">
          <mxGeometry x="523.8399999999999" y="169" width="56.33" height="52" as="geometry" />
        </mxCell>
        <mxCell id="qJTPOWWO7ZOpzd0XANFb-30" style="edgeStyle=orthogonalEdgeStyle;rounded=0;orthogonalLoop=1;jettySize=auto;html=1;entryX=0.5;entryY=1;entryDx=0;entryDy=0;entryPerimeter=0;strokeWidth=2;strokeColor=#3333FF;endArrow=none;endFill=0;startArrow=classic;startFill=1;" edge="1" parent="wB-Hq6-462Kky3SHtKy7-2" source="qJTPOWWO7ZOpzd0XANFb-29" target="qJTPOWWO7ZOpzd0XANFb-23">
          <mxGeometry relative="1" as="geometry" />
        </mxCell>
        <mxCell id="qJTPOWWO7ZOpzd0XANFb-37" value="" style="group" vertex="1" connectable="0" parent="wB-Hq6-462Kky3SHtKy7-2">
          <mxGeometry x="513" y="360" width="78" height="180" as="geometry" />
        </mxCell>
        <mxCell id="qJTPOWWO7ZOpzd0XANFb-34" value="" style="sketch=0;points=[[0,0,0],[0.25,0,0],[0.5,0,0],[0.75,0,0],[1,0,0],[0,1,0],[0.25,1,0],[0.5,1,0],[0.75,1,0],[1,1,0],[0,0.25,0],[0,0.5,0],[0,0.75,0],[1,0.25,0],[1,0.5,0],[1,0.75,0]];outlineConnect=0;fontColor=#232F3E;fillColor=#C925D1;strokeColor=#ffffff;dashed=0;verticalLabelPosition=bottom;verticalAlign=top;align=center;html=1;fontSize=12;fontStyle=0;aspect=fixed;shape=mxgraph.aws4.resourceIcon;resIcon=mxgraph.aws4.dynamodb;" vertex="1" parent="qJTPOWWO7ZOpzd0XANFb-37">
          <mxGeometry y="40" width="78" height="78" as="geometry" />
        </mxCell>
        <mxCell id="qJTPOWWO7ZOpzd0XANFb-33" style="edgeStyle=orthogonalEdgeStyle;rounded=0;orthogonalLoop=1;jettySize=auto;html=1;strokeColor=#3333FF;strokeWidth=2;" edge="1" parent="wB-Hq6-462Kky3SHtKy7-2" source="qJTPOWWO7ZOpzd0XANFb-35" target="qJTPOWWO7ZOpzd0XANFb-6">
          <mxGeometry relative="1" as="geometry">
            <mxPoint x="552" y="500" as="sourcePoint" />
            <mxPoint x="422" y="540" as="targetPoint" />
            <Array as="points">
              <mxPoint x="552" y="570" />
            </Array>
          </mxGeometry>
        </mxCell>
        <mxCell id="qJTPOWWO7ZOpzd0XANFb-35" value="" style="sketch=0;outlineConnect=0;fontColor=#232F3E;gradientColor=none;fillColor=#C925D1;strokeColor=none;dashed=0;verticalLabelPosition=bottom;verticalAlign=top;align=center;html=1;fontSize=12;fontStyle=0;aspect=fixed;pointerEvents=1;shape=mxgraph.aws4.dynamodb_dax;" vertex="1" parent="wB-Hq6-462Kky3SHtKy7-2">
          <mxGeometry x="523.8399999999999" y="510" width="56.33" height="52" as="geometry" />
        </mxCell>
        <mxCell id="qJTPOWWO7ZOpzd0XANFb-36" style="edgeStyle=orthogonalEdgeStyle;rounded=0;orthogonalLoop=1;jettySize=auto;html=1;entryX=0.5;entryY=1;entryDx=0;entryDy=0;entryPerimeter=0;strokeWidth=2;strokeColor=#3333FF;endArrow=none;endFill=0;startArrow=classic;startFill=1;" edge="1" parent="wB-Hq6-462Kky3SHtKy7-2" source="qJTPOWWO7ZOpzd0XANFb-35" target="qJTPOWWO7ZOpzd0XANFb-34">
          <mxGeometry relative="1" as="geometry" />
        </mxCell>
        <mxCell id="wB-Hq6-462Kky3SHtKy7-11" style="edgeStyle=orthogonalEdgeStyle;rounded=0;orthogonalLoop=1;jettySize=auto;html=1;strokeWidth=2;" parent="1" source="wB-Hq6-462Kky3SHtKy7-4" target="wB-Hq6-462Kky3SHtKy7-10" edge="1">
          <mxGeometry relative="1" as="geometry">
            <Array as="points">
              <mxPoint x="150" y="-210" />
              <mxPoint x="150" y="-210" />
            </Array>
          </mxGeometry>
        </mxCell>
        <mxCell id="wB-Hq6-462Kky3SHtKy7-4" value="Players" style="sketch=0;outlineConnect=0;fontColor=#232F3E;gradientColor=none;strokeColor=#232F3E;fillColor=#ffffff;dashed=0;verticalLabelPosition=bottom;verticalAlign=top;align=center;html=1;fontSize=12;fontStyle=0;aspect=fixed;shape=mxgraph.aws4.resourceIcon;resIcon=mxgraph.aws4.users;" parent="1" vertex="1">
          <mxGeometry x="30" y="-242" width="60" height="60" as="geometry" />
        </mxCell>
        <mxCell id="wB-Hq6-462Kky3SHtKy7-5" value="" style="sketch=0;outlineConnect=0;fontColor=#232F3E;gradientColor=none;fillColor=#232F3D;strokeColor=none;dashed=0;verticalLabelPosition=bottom;verticalAlign=top;align=center;html=1;fontSize=12;fontStyle=0;aspect=fixed;pointerEvents=1;shape=mxgraph.aws4.mobile_client;" parent="1" vertex="1">
          <mxGeometry x="110" y="-330" width="41" height="78" as="geometry" />
        </mxCell>
        <mxCell id="wB-Hq6-462Kky3SHtKy7-6" value="" style="sketch=0;aspect=fixed;pointerEvents=1;shadow=0;dashed=0;html=1;strokeColor=none;labelPosition=center;verticalLabelPosition=bottom;verticalAlign=top;align=center;fillColor=#00188D;shape=mxgraph.azure.computer" parent="1" vertex="1">
          <mxGeometry x="94.97" y="-130" width="71.06" height="63.95" as="geometry" />
        </mxCell>
      </root>
    </mxGraphModel>
  </diagram>
</mxfile>
